<svg xmlns="http://www.w3.org/2000/svg" xmlns:svg="http://www.w3.org/2000/svg" id="svg1123" width="16" height="16" version="1.1" viewBox="0 0 4.233 4.233"><metadata id="metadata1120"/><g id="layer1"><path id="path1748" fill="var(--ci-primary-color, currentColor)" d="m 3.8437761,0.55967259 a 1.124579,1.124579 0 0 0 -1.59099,5.97e-4 l -0.136276,0.137937 -0.135142,-0.137638 -8.79e-4,-8.79e-4 a 1.124579,1.124579 0 0 0 -1.59040098,0 l -0.06071,0.06071 a 1.124579,1.124579 0 0 0 0,1.59039201 l 1.60228798,1.602271 0.180943,0.189579 0.0043,-0.0043 0.0047,0.0047 0.16953,-0.178869 1.61335,-1.613367 a 1.1258705,1.1258705 0 0 0 0,-1.59039201 z m -0.13813,1.45229701 -1.588723,1.588758 -1.58875798,-1.588758 a 0.84343427,0.84343427 0 0 1 0,-1.19279201 l 0.06072,-0.06071 a 0.84343427,0.84343427 0 0 1 1.19234398,-4.48e-4 l 0.334676,0.34077401 0.336267,-0.34032601 a 0.84343427,0.84343427 0 0 1 1.1928,0 l 0.06071,0.0607 a 0.8444007,0.8444007 0 0 1 -3.3e-5,1.19280001 z" class="ci-primary" style="stroke-width:.00878576;fill:#c3ccdf;fill-opacity:1"/></g></svg>