<svg xmlns="http://www.w3.org/2000/svg" xmlns:svg="http://www.w3.org/2000/svg" id="svg8" width="15" height="3.865" version="1.1" viewBox="0 0 3.969 1.023"><metadata id="metadata5"/><g id="layer1"><path d="M 0.5072096,-5.0131521e-5 A 0.51136216,0.51136253 0 0 0 -5.0489022e-7,0.51131037 0.51136216,0.51136253 0 0 0 0.5113596,1.0226708 0.51136216,0.51136253 0 0 0 1.0227198,0.51131037 0.51136216,0.51136253 0 0 0 0.5113596,-5.0131521e-5 a 0.51136216,0.51136253 0 0 0 -0.004,0 z m 1.4730304,0 A 0.51136216,0.51136253 0 0 0 1.4730299,0.51131037 0.51136216,0.51136253 0 0 0 1.9844,1.0226708 0.51136216,0.51136253 0 0 0 2.4957601,0.51131037 0.51136216,0.51136253 0 0 0 1.9844,-5.0131521e-5 a 0.51136216,0.51136253 0 0 0 -0.005,0 z m 1.4730303,0 A 0.51136216,0.51136253 0 0 0 2.9460203,0.51131037 0.51136216,0.51136253 0 0 0 3.4573804,1.0226708 0.51136216,0.51136253 0 0 0 3.9687505,0.51131037 0.51136216,0.51136253 0 0 0 3.4573804,-5.0131521e-5 a 0.51136216,0.51136253 0 0 0 -0.004,0 z" style="fill:#b3b3b3;stroke:red;stroke-width:0;stroke-linecap:round" id="path1116-5"/></g></svg>