<svg xmlns="http://www.w3.org/2000/svg" xmlns:svg="http://www.w3.org/2000/svg" id="svg8" width="15" height="12" version="1.1" viewBox="0 0 3.969 3.175"><metadata id="metadata5"/><g id="layer1"><path id="path995" style="fill:#b3b3b3;fill-opacity:1;stroke:#333;stroke-width:0;stroke-linecap:round" d="m 5.1411346e-7,0.39646947 v 0.1171262 A 0.76441772,0.82668623 0 0 0 0.49522798,1.2873271 l 0.2430166,0.098884 a 0.19899043,0.21519994 0 0 1 -5.71e-5,0.4028531 l -0.2429024,0.098745 A 0.76416731,0.82641542 0 0 0 5.1411346e-7,2.6613765 V 2.7784931 A 0.36632052,0.39616052 0 0 0 0.49526068,3.1493014 L 3.8397924,1.789134 A 0.19900363,0.21521421 0 0 0 3.839809,1.3862574 L 0.49524418,0.02570877 A 0.36628567,0.39612284 0 0 0 5.1411346e-7,0.39646947 Z"/></g></svg>