<svg xmlns="http://www.w3.org/2000/svg" xmlns:svg="http://www.w3.org/2000/svg" id="svg8" width="25" height="15" version="1.1" viewBox="0 0 6.615 3.969"><metadata id="metadata5"/><g id="layer1"><path id="path1396" d="M 20 2.5 A 5.0000001 5.0000001 0 0 0 15 7.5 A 5.0000001 5.0000001 0 0 0 20 12.5 A 5.0000001 5.0000001 0 0 0 25 7.5 A 5.0000001 5.0000001 0 0 0 20 2.5 z M 20 5.1054688 A 2.3952096 2.3952096 0 0 1 22.394531 7.5 A 2.3952096 2.3952096 0 0 1 20 9.8945312 A 2.3952096 2.3952096 0 0 1 17.605469 7.5 A 2.3952096 2.3952096 0 0 1 20 5.1054688 z" transform="scale(0.26458333)" style="fill:gray;fill-opacity:1;stroke-width:0;stroke-linecap:round"/></g></svg>