<svg xmlns="http://www.w3.org/2000/svg" xmlns:svg="http://www.w3.org/2000/svg" id="svg8" width="13.5" height="15" version="1.1" viewBox="0 0 3.572 3.969"><metadata id="metadata5"/><g id="layer1"><path style="fill:#b3b3b3;fill-opacity:1;stroke-width:.0141266" id="path1021" d="M 1.9238942,3.6438512 C 1.4817394,4.0788611 0.77078579,4.0771313 0.33108571,3.6378512 -0.10849509,3.1987411 -0.11022428,2.4882011 0.325123,2.0463711 L 0.32462607,2.0461013 1.9239736,0.44804118 2.1239828,0.24826119 c 0.3312583,-0.33097001 0.8682002,-0.33097001 1.1994485,0 0.3312583,0.33096999 0.3312583,0.86755011 0,1.19864001 l -1.762994,1.7432803 -4.97e-4,-4.762e-4 C 1.3426791,3.3990211 0.99638489,3.397541 0.78170749,3.1837153 c -0.2146774,-0.2135399 -0.2160289,-0.55777 -0.005963,-0.77355 l -4.865e-4,-7.487e-4 0.1963024,-0.1949301 0.98157111,-0.97555 0.196183,0.19519 -1.17775411,1.1704801 c -0.1084518,0.10764 -0.1084518,0.2823701 0,0.39012 0.10845171,0.10775 0.28430191,0.10775 0.39262441,0 l 1.759178,-1.7482401 -4.995e-4,-3.704e-4 0.00696,-0.006 c 0.2208386,-0.22061 0.2208386,-0.5784901 0,-0.7990801 -0.2208489,-0.2206 -0.5787108,-0.22061 -0.7995596,0 l -0.00596,0.007 L 2.3238068,0.44775554 2.1239123,0.64740507 0.52446539,2.2454751 c -0.33124834,0.33098 -0.33124834,0.86755 0,1.1985199 0.3312583,0.3309702 0.86832941,0.3309702 1.19931941,0 L 3.1232424,2.0457051 3.3231322,1.8460551 3.523022,2.0457051 3.3231322,2.2454751 1.923933,3.643775 c 0,-1.98e-5 -2.484e-4,-2.91e-4 -2.484e-4,-2.91e-4 z"/></g></svg>