<svg xmlns="http://www.w3.org/2000/svg" xmlns:svg="http://www.w3.org/2000/svg" id="Capa_1" width="18" height="18" x="0" y="0" version="1.1" viewBox="0 0 18 18" xml:space="preserve"><metadata id="metadata43"/><g id="g6" transform="matrix(0.03674969,0,0,0.03674969,9.19e-7,-1.3853197e-5)" style="fill:#c3ccdf;fill-opacity:1"><g id="g4" style="fill:#c3ccdf;fill-opacity:1"><path id="path2" d="m 489.8,280.92 c 0,-13.9 -11.3,-25.2 -25.2,-25.2 h -74.1 c -62.1,0 -112.4,50.2 -112.7,112.2 -0.1,32.3 -23,61 -55,65 -38.4,4.8 -71.2,-25.2 -71.2,-62.6 v -56.4 c 57.6,-11.7 101,-62.6 101,-123.7 v -64 c 0,-9.1 -7.3,-16.4 -16.4,-16.4 h -31.3 v -79.1 c 0,-12.4 -9,-23.4 -21.3,-24.6 -14.1,-1.4 -26,9.7 -26,23.6 v 80.1 H 95.2 v -79.1 c 0,-12.4 -9,-23.4 -21.4,-24.6 -14.1,-1.3 -26,9.7 -26,23.6 v 80.1 H 16.4 c -9.1,0 -16.4,7.3 -16.4,16.4 v 64 c 0,61.1 43.4,112 101,123.7 v 53.5 c 0,61.5 47.7,114 109.2,116.3 64.6,2.4 118,-49.4 118,-113.5 v -0.9 c 0,-34.9 28.3,-63.1 63.1,-63.1 h 73.2 c 14,-0.1 25.3,-11.4 25.3,-25.3 z" style="fill:#c3ccdf;fill-opacity:1"/></g></g></svg>