<svg xmlns="http://www.w3.org/2000/svg" xmlns:svg="http://www.w3.org/2000/svg" id="svg1123" width="16" height="16" version="1.1" viewBox="0 0 4.233 4.233"><metadata id="metadata1120"/><g id="layer1"><path id="path924" fill="var(--ci-primary-color, currentColor)" d="m 2.2591467,0.08067382 c -0.12676,-0.110868 -0.32292,-0.106982 -0.44471,0.0088 -0.54091,0.514215 -1.08177003,1.02847098 -1.62268003,1.54268498 -0.1059,0.100686 -0.1917600033334,0.300754 -0.1917600033334,0.446879 v 1.889698 A 0.26458331,0.26458331 0 0 0 0.26458667,4.2333198 H 1.3985067 a 0.26458331,0.26458331 0 0 0 0.26459,-0.264584 v -1.018815 a 0.13229166,0.13229166 0 0 1 0.13229,-0.132292 h 0.64256 a 0.13229166,0.13229166 0 0 1 0.13229,0.132292 v 1.018815 a 0.26458331,0.26458331 0 0 0 0.26458,0.264584 h 1.13393 a 0.26458331,0.26458331 0 0 0 0.26459,-0.264584 v -1.896721 c 0,-0.146126 -0.0892,-0.34258 -0.19914,-0.438789 -0.59165,-0.517555 -1.18337,-1.03503798 -1.77505,-1.55255198 z m -0.21784,0.301963 c 1.2e-4,-0.0016 1.2e-4,-0.0016 1.2e-4,-0.0016 z m 1.5666,3.48136598 h -0.40055 a 0.26458331,0.26458331 0 0 1 -0.26458,-0.264584 v -0.875328 c 0,-0.158767 -0.13538,-0.287474 -0.30238,-0.287474 h -1.08254 c -0.167,0 -0.30238,0.128707 -0.30238,0.287474 v 0.875328 a 0.26458331,0.26458331 0 0 1 -0.26458003,0.264584 h -0.34208 a 0.26458331,0.26458331 0 0 1 -0.26459,-0.264584 v -1.307754 a 0.63429306,0.63429306 0 0 1 0.18802,-0.450739 L 1.9474167,0.47937082 c 0.0519,-0.0514 0.094,-0.09339 0.0942,-0.09339 l 1.63381,1.46450498 a 0.59248392,0.59248392 0 0 1 0.19702,0.441184 v 1.307755 a 0.26458331,0.26458331 0 0 1 -0.26458,0.264585 z" class="ci-primary" style="fill:#c3ccdf;fill-opacity:1;stroke-width:.00921352"/></g></svg>