<svg xmlns="http://www.w3.org/2000/svg" xmlns:svg="http://www.w3.org/2000/svg" id="svg1123" width="18" height="18" version="1.1" viewBox="0 0 4.762 4.763"><metadata id="metadata1120"/><g id="layer1"><path id="path831" style="fill:#c3ccdf;stroke-width:3.40858;stroke-linecap:round" d="M 2.38125,0 A 2.3812499,2.3812499 0 0 0 0,2.38125 2.3812499,2.3812499 0 0 0 2.38125,4.7625 2.3812499,2.3812499 0 0 0 4.7625,2.38125 2.3812499,2.3812499 0 0 0 2.38125,0 Z m 0,0.67030791 c 0.2262168,0 0.4098587,0.18422327 0.4098587,0.41044009 0,0.2262168 -0.1836419,0.4098587 -0.4098587,0.4098587 -0.2262168,0 -0.4098587,-0.1836419 -0.4098587,-0.4098587 0,-0.22621682 0.1836419,-0.41044009 0.4098587,-0.41044009 z M 2.3254395,1.8016342 h 0.111621 A 0.29765625,0.29765625 0 0 1 2.7347168,2.0992905 V 3.7945359 A 0.29765625,0.29765625 0 0 1 2.4370605,4.0921921 H 2.3254395 A 0.29765625,0.29765625 0 0 1 2.0277832,3.7945359 V 2.0992905 A 0.29765625,0.29765625 0 0 1 2.3254395,1.8016342 Z"/></g></svg>