<svg xmlns="http://www.w3.org/2000/svg" xmlns:svg="http://www.w3.org/2000/svg" id="svg1123" width="16" height="12.979" version="1.1" viewBox="0 0 4.233 3.434"><metadata id="metadata1120"/><g id="layer1"><path id="path1737" fill="var(--ci-primary-color, currentColor)" d="m 4.1881781,1.2550782 c -0.040167,-0.05178 -0.1020848,-0.081993 -0.167617,-0.08179 H 3.4339851 V 0.7088652 C 3.4338533,0.59581999 3.3422423,0.504213 3.2291971,0.50408623 h -1.207708 l -0.157472,-0.378076 C 1.8323311,0.049613 1.7576995,-1.3404038e-4 1.6749921,1.222962e-5 H 0.20477805 C 0.09173634,1.4395962e-4 1.3078124e-4,0.09174952 -9.4815342e-7,0.20479123 V 3.4340152 H 3.7277421 l 0.499122,-1.996493 c 0.016088,-0.063523 0.0018,-0.1309155 -0.03869,-0.182441 z m -3.79557487,1.7915233 0,-2.61763371 H 1.5445818 l 0.209998,0.50407396 h 1.2296898 l 0,0.24024345 H 1.0773411 C 0.9797102,1.1731588 0.89457356,1.2396202 0.87100205,1.3343632 l -0.453994,1.7122383 c 0,0 0.0171431,0.00519 -0.0244048,0 z m 2.99950817,0 H 0.84430765 L 1.2417473,1.5555024 h 2.5062558 z" class="ci-primary" style="fill:#c3ccdf;fill-opacity:1;stroke-width:.00886065"/></g></svg>